<svg xmlns="http://www.w3.org/2000/svg" version="1.1" xmlns:xlink="http://www.w3.org/1999/xlink" xmlns:svgjs="http://svgjs.dev/svgjs" width="1000" height="136" viewBox="0 0 1000 136"><g transform="matrix(1,0,0,1,-0.6060517633109157,-0.06622307998540578)"><svg viewBox="0 0 396 54" data-background-color="#ffffff" preserveAspectRatio="xMidYMid meet" height="136" width="1000" xmlns="http://www.w3.org/2000/svg" xmlns:xlink="http://www.w3.org/1999/xlink"><g id="tight-bounds" transform="matrix(1,0,0,1,0.23999649827112535,0.026294458229500606)"><svg viewBox="0 0 395.52 53.947411083540985" height="53.947411083540985" width="395.52"><g><svg viewBox="0 0 395.52 53.947411083540985" height="53.947411083540985" width="395.52"><g><svg viewBox="0 0 395.52 53.947411083540985" height="53.947411083540985" width="395.52"><g id="textblocktransform"><svg viewBox="0 0 395.52 53.947411083540985" height="53.947411083540985" width="395.52" id="textblock"><g><rect width="148.08468883008678" height="2.623966442174951" y="43.64456123950269" fill="#fff" data-fill-palette-color="tertiary"></rect><rect width="148.08468883008678" height="2.623966442174951" y="43.64456123950269" x="247.4353111699132" fill="#fff" data-fill-palette-color="tertiary"></rect></g><g><svg viewBox="0 0 395.52 29.09665573770492" height="29.09665573770492" width="395.52"><g transform="matrix(1,0,0,1,0,0)"><svg width="395.52" viewBox="2.3499999046325684 -35.45000076293945 487.9599914550781 35.900001525878906" height="29.09665573770492" data-palette-color="#fff"><path d="M5-33.95L2.35-34.25 2.4-35 14.55-35Q19.7-35 22.5-32.75 25.3-30.5 25.3-26.05L25.3-26.05Q25.3-23.15 23.08-20 20.85-16.85 18.9-15.95L18.9-15.95 28.15-0.9 30.6-0.75Q30.6-0.7 30.55 0L30.55 0 25.1 0.05 15.6-15.35 8.95-15.35 8.95-0.95 12.45-0.75Q12.45-0.7 12.4 0L12.4 0 2.35 0.05 2.4-0.65 5-1Q5.35-1.05 5.55-1.45L5.55-1.45 5.55-33.45Q5.4-33.9 5-33.95L5-33.95ZM14.3-34.25L14.3-34.25 8.95-34.25 8.95-16.1 17.5-16.1Q20.1-19.05 21-21.33 21.9-23.6 21.9-25.75L21.9-25.75Q21.9-29.95 19.95-32.1 18-34.25 14.3-34.25ZM31.6-17.4L31.6-17.4Q31.6-25.65 35.82-30.55 40.05-35.45 46.35-35.45L46.35-35.45Q61.1-35.45 61.1-17.4L61.1-17.4Q61.1-9.1 56.9-4.33 52.7 0.45 46.35 0.45L46.35 0.45Q31.6 0.45 31.6-17.4ZM35-17.5L35-17.5Q35-0.55 46.35-0.55L46.35-0.55Q51.25-0.55 54.47-5.05 57.7-9.55 57.7-17.5L57.7-17.5Q57.7-34.45 46.35-34.45L46.35-34.45Q41.5-34.45 38.25-29.9 35-25.35 35-17.5ZM67.05-33.95L64.39-34.25 64.44-35 85.84-35 85.8-34.85 86.44-27.8 85.44-27.4 84.64-34 71.05-34 71.05-17.85 83-17.85Q83.25-17.8 83.44-17.98 83.64-18.15 83.64-18.45L83.64-18.45 83.84-21.9 84.64-22 84.64-13.45Q84.59-13.45 83.89-13.4L83.89-13.4 83.69-16.85 71.05-16.85 71.05-0.95 74.5-0.75Q74.5-0.7 74.44 0L74.44 0 64.39 0.05 64.44-0.65 67.05-1Q67.55-1.05 67.64-1.65L67.64-1.65 67.64-33.3Q67.55-33.9 67.05-33.95L67.05-33.95ZM92.39-33.95L89.74-34.25 89.79-35 111.19-35 111.14-34.85 111.79-27.8 110.79-27.4 109.99-34 96.39-34 96.39-17.85 108.34-17.85Q108.59-17.8 108.79-17.98 108.99-18.15 108.99-18.45L108.99-18.45 109.19-21.9 109.99-22 109.99-13.45Q109.94-13.45 109.24-13.4L109.24-13.4 109.04-16.85 96.39-16.85 96.39-1 111.34-1 112.29-9 113.24-8.75 112.49 0 99.79 0 89.74 0.05 89.79-0.65 92.39-1Q92.89-1.05 92.99-1.65L92.99-1.65 92.99-33.3Q92.89-33.9 92.39-33.95L92.39-33.95ZM118.99-33.95L116.34-34.25 116.39-35 128.54-35Q133.69-35 136.49-32.75 139.29-30.5 139.29-26.05L139.29-26.05Q139.29-23.15 137.06-20 134.84-16.85 132.89-15.95L132.89-15.95 142.14-0.9 144.59-0.75Q144.59-0.7 144.54 0L144.54 0 139.09 0.05 129.59-15.35 122.94-15.35 122.94-0.95 126.44-0.75Q126.44-0.7 126.39 0L126.39 0 116.34 0.05 116.39-0.65 118.99-1Q119.34-1.05 119.54-1.45L119.54-1.45 119.54-33.45Q119.39-33.9 118.99-33.95L118.99-33.95ZM128.29-34.25L128.29-34.25 122.94-34.25 122.94-16.1 131.49-16.1Q134.09-19.05 134.99-21.33 135.89-23.6 135.89-25.75L135.89-25.75Q135.89-29.95 133.94-32.1 131.99-34.25 128.29-34.25ZM179.94-14.4L188.94-14.45Q188.94-14.4 188.99-13.7L188.99-13.7 186.99-13.45 186.99-1.05Q186.13-0.75 182.46-0.28 178.78 0.2 176.48 0.2 174.19 0.2 172.48-0.13 170.78-0.45 168.88-1.5 166.98-2.55 165.66-4.28 164.34-6 163.44-9 162.53-12 162.53-16L162.53-16Q162.53-24.85 166.59-29.8L166.59-29.8Q170.84-35 178.19-35L178.19-35Q180.44-35 183.06-34.58 185.69-34.15 186.78-33.75L186.78-33.75 187.38-26.55 186.44-26.2 185.78-31.55Q181.74-34.3 178.19-34.3L178.19-34.3Q172.53-34.3 169.23-29.6 165.94-24.9 165.94-16L165.94-16Q165.94-5.2 170.88-2.05L170.88-2.05Q172.38-1.1 173.66-0.83 174.94-0.55 177.23-0.55 179.53-0.55 183.99-1.2L183.99-1.2 184.19-12.7Q184.19-13.3 183.59-13.4L183.59-13.4 179.99-13.65Q179.94-13.95 179.94-14.4L179.94-14.4ZM201.28 0L191.23 0.05 191.28-0.65 193.88-1Q194.23-1.05 194.48-1.65L194.48-1.65 205.28-35 208.58-35 220.08-0.95 223.53-0.75Q223.53-0.7 223.48 0L223.48 0 213.48 0.05Q213.48-0.4 213.53-0.65L213.53-0.65 216.13-1Q216.53-1.05 216.53-1.6L216.53-1.6 213.78-9.75 198.18-9.75 195.53-1.05 201.33-0.75Q201.33-0.7 201.28 0L201.28 0ZM213.43-10.75L205.63-34.05 198.48-10.75 213.43-10.75ZM235.13-0.95L235.13-0.95Q238.83-0.95 241.63-3.13 244.43-5.3 244.43-9.75L244.43-9.75Q244.43-11.75 243.46-13.18 242.48-14.6 240.88-15.38 239.28-16.15 237.38-16.73 235.48-17.3 233.58-17.95 231.68-18.6 230.08-19.5 228.48-20.4 227.51-22.05 226.53-23.7 226.53-26L226.53-26Q226.53-30 229.28-32.55 232.03-35.1 236.63-35.1 241.23-35.1 245.43-34.05L245.43-34.05 245.98-27.8 245.03-27.4 244.53-31.35Q240.83-34.1 237.58-34.1 234.33-34.1 232.13-32.13 229.93-30.15 229.93-26.2L229.93-26.2Q229.93-23.9 231.78-22.55 233.63-21.2 236.26-20.45 238.88-19.7 241.51-18.75 244.13-17.8 245.98-15.55 247.83-13.3 247.83-9.7L247.83-9.7Q247.83-4.85 244.38-2.4 240.93 0.05 235.28 0.05 229.63 0.05 225.48-3L225.48-3 225.53-8.3 226.48-8.55 226.58-5.7Q227.93-3.8 230.28-2.38 232.63-0.95 235.13-0.95ZM259.83-1.65L259.83-34 251.23-34 250.43-27.4 249.48-27.8 249.98-34 249.93-34 250.03-34.4 250.08-35 250.18-34.95 250.18-35 272.88-35 273.53-27.8 272.53-27.4 271.73-34 262.98-34 262.98-0.95 266.63-0.75Q266.63-0.7 266.58 0L266.58 0 256.58 0.05Q256.58-0.4 256.63-0.65L256.63-0.65 259.23-1Q259.73-1.05 259.83-1.65L259.83-1.65ZM279.03-33.95L276.38-34.25 276.43-35 288.58-35Q293.73-35 296.53-32.75 299.33-30.5 299.33-26.05L299.33-26.05Q299.33-23.15 297.1-20 294.88-16.85 292.93-15.95L292.93-15.95 302.18-0.9 304.63-0.75Q304.63-0.7 304.58 0L304.58 0 299.13 0.05 289.63-15.35 282.98-15.35 282.98-0.95 286.48-0.75Q286.48-0.7 286.43 0L286.43 0 276.38 0.05 276.43-0.65 279.03-1Q279.38-1.05 279.58-1.45L279.58-1.45 279.58-33.45Q279.43-33.9 279.03-33.95L279.03-33.95ZM288.33-34.25L288.33-34.25 282.98-34.25 282.98-16.1 291.53-16.1Q294.13-19.05 295.03-21.33 295.93-23.6 295.93-25.75L295.93-25.75Q295.93-29.95 293.98-32.1 292.03-34.25 288.33-34.25ZM305.62-17.4L305.62-17.4Q305.62-25.65 309.85-30.55 314.07-35.45 320.37-35.45L320.37-35.45Q335.12-35.45 335.12-17.4L335.12-17.4Q335.12-9.1 330.92-4.33 326.72 0.45 320.37 0.45L320.37 0.45Q305.62 0.45 305.62-17.4ZM309.02-17.5L309.02-17.5Q309.02-0.55 320.37-0.55L320.37-0.55Q325.27-0.55 328.5-5.05 331.72-9.55 331.72-17.5L331.72-17.5Q331.72-34.45 320.37-34.45L320.37-34.45Q315.52-34.45 312.27-29.9 309.02-25.35 309.02-17.5ZM341.02-33.95L338.37-34.25 338.42-35 345.27-35 364.72-1.4 364.47-33.25Q364.27-33.75 363.92-33.8L363.92-33.8 359.32-34.2Q359.27-34.5 359.27-34.95L359.27-34.95 368.77-35Q368.77-34.95 368.82-34.25L368.82-34.25 365.62-33.9 365.62 0 361.97 0 342.52-33.6 342.77-1.05 348.47-0.75Q348.47-0.7 348.42 0L348.42 0 338.37 0.05 338.42-0.65 341.02-1Q341.52-1.05 341.62-1.65L341.62-1.65 341.62-33.3Q341.52-33.9 341.02-33.95L341.02-33.95ZM372.52-17.4L372.52-17.4Q372.52-25.65 376.74-30.55 380.97-35.45 387.27-35.45L387.27-35.45Q402.02-35.45 402.02-17.4L402.02-17.4Q402.02-9.1 397.82-4.33 393.62 0.45 387.27 0.45L387.27 0.45Q372.52 0.45 372.52-17.4ZM375.92-17.5L375.92-17.5Q375.92-0.55 387.27-0.55L387.27-0.55Q392.17-0.55 395.39-5.05 398.62-9.55 398.62-17.5L398.62-17.5Q398.62-34.45 387.27-34.45L387.27-34.45Q382.42-34.45 379.17-29.9 375.92-25.35 375.92-17.5ZM407.57-33.95L404.92-34.25 404.97-35 411.57-35 423.52-9.65 435.27-35 441.87-35Q441.87-34.9 441.92-34.65 441.97-34.4 441.92-34.25L441.92-34.25 439.27-33.95Q438.77-33.9 438.67-33.3L438.67-33.3 438.67-0.95 442.37-0.75Q442.37-0.7 442.32 0L442.32 0 432.27 0.05 432.32-0.65 434.92-1Q435.42-1.05 435.52-1.6L435.52-1.6 435.52-33.2 424.12-8.55 423.12-6.55 421.97-6.55 409.32-33.25 409.32-1.05 415.02-0.75Q415.02-0.7 414.97 0L414.97 0 404.92 0.05 404.97-0.65 407.57-1Q408.07-1.05 408.17-1.65L408.17-1.65 408.17-33.3Q408.07-33.9 407.57-33.95L407.57-33.95ZM455.71 0L445.66 0.05 445.71-0.65 448.31-1Q448.81-1.05 448.91-1.65L448.91-1.65 448.96-1.65 448.96-33.25 448.91-33.25Q448.81-33.9 448.31-33.95L448.31-33.95 445.71-34.2 445.66-34.95 455.71-35Q455.71-34.95 455.76-34.25L455.76-34.25 452.36-33.95 452.36-0.95 455.76-0.75Q455.76-0.7 455.71 0L455.71 0ZM468.06 0L458.01 0.05 458.06-0.65 460.66-1Q461.01-1.05 461.26-1.65L461.26-1.65 472.06-35 475.36-35 486.86-0.95 490.31-0.75Q490.31-0.7 490.26 0L490.26 0 480.26 0.05Q480.26-0.4 480.31-0.65L480.31-0.65 482.91-1Q483.31-1.05 483.31-1.6L483.31-1.6 480.56-9.75 464.96-9.75 462.31-1.05 468.11-0.75Q468.11-0.7 468.06 0L468.06 0ZM480.21-10.75L472.41-34.05 465.26-10.75 480.21-10.75Z" opacity="1" transform="matrix(1,0,0,1,0,0)" fill="#fff" class="wordmark-text-0" data-fill-palette-color="primary" id="text-0"></path></svg></g></svg></g><g transform="matrix(1,0,0,1,148.08468883008678,35.96567783763935)"><svg viewBox="0 0 99.35062233982643 17.98173324590164" height="17.98173324590164" width="99.35062233982643"><g transform="matrix(1,0,0,1,8,0)"><svg width="83.35062233982643" viewBox="5 -33.25 157.58999633789062 34" height="17.98173324590164" data-palette-color="#aab7c0"><path d="M19.75-3L19.75 0 5 0 5-32.5 19.25-32.5 19.25-29.5 8.5-29.5 8.5-18 17.25-18 17.25-15 8.5-15 8.5-3 19.75-3ZM44.2-32.5L36.85 0 31.6 0 24.25-32.5 27.75-32.5 34.2-3.85 40.7-32.5 44.2-32.5ZM63.45-6.25L63.45-6.25 63.45-9 66.95-9 66.95-6.25Q66.95-2.9 64.9-1.07 62.85 0.75 58.75 0.75 54.65 0.75 52.55-1.07 50.45-2.9 50.45-6.25L50.45-6.25 50.45-26.25Q50.45-29.6 52.5-31.43 54.55-33.25 58.65-33.25 62.75-33.25 64.85-31.43 66.95-29.6 66.95-26.25L66.95-26.25 66.95-15.25 53.95-15.25 53.95-6.25Q53.95-2.25 58.7-2.25 63.45-2.25 63.45-6.25ZM53.95-26.25L53.95-26.25 53.95-18.25 63.45-18.25 63.45-26.25Q63.45-30.25 58.7-30.25 53.95-30.25 53.95-26.25ZM79.69-25.25L79.69 0 76.19 0 76.19-32.5 77.69-32.5 78.94-29.25Q81.34-33.25 85.59-33.25L85.59-33.25Q92.94-33.25 92.94-26.25L92.94-26.25 92.94 0 89.44 0 89.44-26.25Q89.44-28.15 88.62-29.2 87.79-30.25 85.59-30.25 83.39-30.25 81.54-28.55 79.69-26.85 79.69-25.25L79.69-25.25ZM101.69-5.75L101.69-32.5 112.69-32.5 112.69-29.5 105.19-29.5 105.19-5.55Q105.19-4.15 105.92-3.2 106.64-2.25 107.97-2.25 109.29-2.25 109.99-3.18 110.69-4.1 110.69-5.55L110.69-5.55 110.69-11.5 114.19-11.5 114.19-5.75Q114.19-2.6 112.52-0.93 110.84 0.75 107.99 0.75 105.14 0.75 103.42-0.93 101.69-2.6 101.69-5.75L101.69-5.75ZM137.44-26.25L137.44-26.25 137.44-6.25Q137.44-2.9 135.31-1.07 133.19 0.75 128.96 0.75 124.74 0.75 122.59-1.07 120.44-2.9 120.44-6.25L120.44-6.25 120.44-26.25Q120.44-29.6 122.56-31.43 124.69-33.25 128.91-33.25 133.14-33.25 135.29-31.43 137.44-29.6 137.44-26.25ZM133.94-6.25L133.94-6.25 133.94-26.25Q133.94-30.25 128.94-30.25 123.94-30.25 123.94-26.25L123.94-26.25 123.94-6.25Q123.94-2.25 128.94-2.25 133.94-2.25 133.94-6.25ZM162.59-6.25L162.59-6.25Q162.59 0.75 154.13 0.75 145.69 0.75 145.69-6.25L145.69-6.25 145.69-10.5 149.19-10.5 149.19-6.05Q149.19-4.25 150.44-3.25 151.69-2.25 154.13-2.25 156.59-2.25 157.84-3.25 159.09-4.25 159.09-5.98 159.09-7.7 158.71-8.72 158.34-9.75 157.19-10.9L157.19-10.9 148.38-19.5Q146.84-21.05 146.26-22.53 145.69-24 145.69-26.25L145.69-26.25Q145.69-29.6 147.76-31.43 149.84-33.25 154.03-33.25L154.03-33.25Q162.09-33.25 162.09-26.25L162.09-26.25 162.09-22 158.59-22 158.59-26.45Q158.59-28.25 157.41-29.25 156.24-30.25 153.88-30.25 151.53-30.25 150.36-29.25 149.19-28.25 149.19-26.5 149.19-24.75 149.53-23.75 149.88-22.75 151.09-21.65L151.09-21.65 160.03-13.05Q161.49-11.45 162.03-9.98 162.59-8.5 162.59-6.25Z" opacity="1" transform="matrix(1,0,0,1,0,0)" fill="#aab7c0" class="slogan-text-1" data-fill-palette-color="secondary" id="text-1"></path></svg></g></svg></g></svg></g></svg></g><g></g></svg></g><defs></defs></svg><rect width="395.52" height="53.947411083540985" fill="none" stroke="none" visibility="hidden"></rect></g></svg></g></svg>